<svg width="163" height="48" fill="none" xmlns="http://www.w3.org/2000/svg"><path d="M45.05 14.013h7.622c4.86 0 8.874 2.812 8.874 9.231v1.35c0 6.467-3.754 9.376-8.727 9.376H45.05V14.013zm4.258 3.624V30.33h3.267c2.763 0 4.615-1.804 4.615-5.818v-1.056c0-4.015-1.95-5.819-4.761-5.819h-3.12zm14.497.195h3.413l.552 3.755c.65-2.552 2.308-3.917 5.315-3.917h1.056v4.306h-1.755c-3.462 0-4.307 1.203-4.307 4.616v7.427H63.87V17.832h-.065zm11.181 8.419v-.455c0-5.412 3.462-8.37 8.175-8.37 4.81 0 8.175 2.958 8.175 8.37v.455c0 5.314-3.267 8.174-8.175 8.174-5.217-.048-8.175-2.844-8.175-8.174zm12.043-.049v-.406c0-3.007-1.511-4.81-3.917-4.81-2.356 0-3.916 1.657-3.916 4.81v.406c0 2.91 1.511 4.567 3.916 4.567 2.406-.049 3.917-1.658 3.917-4.567zm6.517-8.37h3.51l.407 3.056c.845-2.048 2.649-3.462 5.314-3.462 4.112 0 6.826 2.958 6.826 8.435v.455c0 5.314-3.007 8.126-6.826 8.126-2.551 0-4.307-1.154-5.168-3.007v8.175h-4.112l.049-21.778zm11.783 8.37v-.358c0-3.217-1.658-4.81-3.868-4.81-2.357 0-3.917 1.804-3.917 4.81v.31c0 2.86 1.511 4.664 3.868 4.664 2.421-.05 3.917-1.593 3.917-4.616zm10.498 4.827l-.357 2.958h-3.608V12.42h4.112v8.273c.91-2.113 2.714-3.267 5.265-3.267 3.868.049 6.729 2.714 6.729 8.077v.504c0 5.363-2.715 8.435-6.826 8.435-2.714-.065-4.47-1.317-5.315-3.413zm7.818-5.022v-.406c0-2.958-1.609-4.616-3.868-4.616-2.308 0-3.917 1.853-3.917 4.665v.357c0 3.007 1.56 4.762 3.868 4.762 2.47 0 3.917-1.544 3.917-4.762zm6.126.244v-.455c0-5.412 3.462-8.37 8.175-8.37 4.811 0 8.175 2.958 8.175 8.37v.455c0 5.314-3.315 8.174-8.175 8.174-5.217-.048-8.175-2.844-8.175-8.174zm12.076-.049v-.406c0-3.007-1.512-4.81-3.917-4.81-2.357 0-3.917 1.657-3.917 4.81v.406c0 2.91 1.512 4.567 3.917 4.567 2.421-.049 3.917-1.658 3.917-4.567zm9.783-.601l-5.672-7.769h4.86l3.266 4.86 3.316-4.86h4.81l-5.753 7.72 6.062 8.435h-4.762l-3.705-5.363-3.608 5.363h-4.973l6.159-8.386zM18.852 14.013l-9.426 6.013 9.426 6.014-9.426 6.013L0 26.007l9.426-6.013L0 14.014 9.426 8l9.426 6.013zM9.377 33.987l9.426-6.013 9.427 6.013L18.803 40l-9.426-6.013zm9.475-7.98l9.426-6.013-9.426-5.98L28.23 8l9.426 6.013-9.426 6.013 9.426 6.014-9.426 6.013-9.378-6.046z" fill="#272D38"/></svg>