<svg width="121" height="48" fill="none" xmlns="http://www.w3.org/2000/svg"><path d="M37.925 32.426l1.468-3.431c1.608 1.19 3.704 1.82 5.801 1.82 1.538 0 2.517-.595 2.517-1.505-.035-2.521-9.262-.56-9.332-6.899-.035-3.221 2.831-5.707 6.886-5.707 2.41 0 4.822.595 6.535 1.961l-1.372 3.505c-1.575-1.013-3.521-1.72-5.373-1.72-1.258 0-2.097.595-2.097 1.366.035 2.486 9.331 1.12 9.436 7.179 0 3.291-2.796 5.603-6.78 5.603-2.936 0-5.627-.7-7.69-2.172h.001zm58.458-4.674a4.259 4.259 0 01-3.712 2.17 4.268 4.268 0 01-4.263-4.271 4.268 4.268 0 014.263-4.272 4.26 4.26 0 013.712 2.17l4.082-2.266a8.924 8.924 0 00-7.794-4.58c-4.931 0-8.929 4.006-8.929 8.948 0 4.94 3.998 8.947 8.93 8.947a8.924 8.924 0 007.793-4.58l-4.082-2.266zm-41.34 6.495h5.102V9.256h-5.102v24.991zm47.999-24.991v24.991h5.102V26.76l6.046 7.487h6.523l-7.689-8.895 7.129-8.3h-6.242l-5.767 6.901V9.256h-5.102zm-27.177 7.797v2.032c-.838-1.401-2.9-2.381-5.067-2.381-4.474 0-8.003 3.957-8.003 8.93 0 4.971 3.53 8.964 8.003 8.964 2.167 0 4.229-.98 5.067-2.382v2.031h5.103V17.053h-5.103zm0 10.734c-.733 1.225-2.271 2.135-3.983 2.135a4.267 4.267 0 01-4.264-4.271 4.268 4.268 0 014.264-4.272c1.712 0 3.25.945 3.983 2.205v4.203zM10.978 8.704a2.997 2.997 0 00-2.767 4.147 2.998 2.998 0 002.767 1.852h2.995v-3a2.998 2.998 0 00-2.995-3zm0 8H2.994a2.997 2.997 0 00-2.994 3c0 1.656 1.34 3 2.994 3h7.985a2.997 2.997 0 002.994-3c0-1.657-1.341-3-2.995-3zm18.963 3c0-1.657-1.34-3-2.994-3a2.997 2.997 0 00-2.994 3v3h2.994a2.998 2.998 0 002.994-3zm-7.984 0v-8a2.997 2.997 0 00-2.994-3 2.997 2.997 0 00-2.994 3v8c0 1.657 1.34 3 2.994 3a2.998 2.998 0 002.994-3m-2.994 19a2.997 2.997 0 002.994-3 2.997 2.997 0 00-2.994-3h-2.994v3c0 1.656 1.34 3 2.994 3zm0-8h7.984a2.997 2.997 0 002.994-3 2.997 2.997 0 00-2.994-3h-7.984a2.997 2.997 0 00-2.767 4.147 2.999 2.999 0 002.767 1.852M0 27.703a2.997 2.997 0 002.994 3 2.997 2.997 0 002.994-3v-3H2.994a2.997 2.997 0 00-2.994 3zm7.984 0v8c0 1.657 1.34 3 2.994 3a2.998 2.998 0 002.994-3v-8a2.996 2.996 0 00-2.994-3 2.997 2.997 0 00-2.994 3z" fill="#272D38"/></svg>