<svg width="140" height="48" fill="none" xmlns="http://www.w3.org/2000/svg"><g clip-path="url(#clip0_61_52)"><path d="M21.073 3.08c-11.598 0-21 9.401-21 21 0 11.598 9.402 21 21 21 11.599 0 21-9.402 21-21s-9.401-21-21-21zm9.63 30.287a1.308 1.308 0 01-1.8.434c-4.93-3.012-11.138-3.694-18.448-2.024a1.31 1.31 0 01-.583-2.552c8-1.828 14.862-1.041 20.398 2.342.616.378.812 1.183.433 1.8zm2.57-5.718a1.637 1.637 0 01-2.251.54c-5.645-3.47-14.25-4.475-20.927-2.448a1.64 1.64 0 01-2.043-1.09 1.64 1.64 0 011.092-2.043c7.627-2.314 17.108-1.193 23.59 2.79a1.637 1.637 0 01.54 2.252zm.221-5.954c-6.768-4.02-17.935-4.39-24.397-2.429a1.964 1.964 0 11-1.14-3.759c7.418-2.252 19.75-1.816 27.542 2.81a1.962 1.962 0 01.687 2.691 1.963 1.963 0 01-2.69.687h-.002zm23.713.77c-3.626-.864-4.27-1.471-4.27-2.746 0-1.205 1.133-2.016 2.82-2.016 1.636 0 3.256.616 4.956 1.883a.23.23 0 00.178.044.234.234 0 00.158-.097l1.77-2.496a.238.238 0 00-.044-.323c-2.024-1.623-4.301-2.412-6.964-2.412-3.915 0-6.65 2.35-6.65 5.711 0 3.605 2.359 4.881 6.436 5.866 3.469.8 4.055 1.47 4.055 2.666 0 1.327-1.183 2.152-3.09 2.152-2.116 0-3.843-.715-5.774-2.385a.235.235 0 00-.336.025l-1.987 2.362a.239.239 0 00.023.331c2.247 2.006 5.01 3.064 7.995 3.064 4.218 0 6.944-2.304 6.944-5.873.007-3.01-1.796-4.678-6.212-5.753l-.008-.003zm15.764-3.576c-1.828 0-3.328.72-4.567 2.196v-1.66a.237.237 0 00-.235-.239H64.92a.237.237 0 00-.236.238v18.457c0 .13.106.238.236.238h3.248c.13 0 .235-.107.235-.238v-5.825c1.24 1.387 2.739 2.066 4.567 2.066 3.398 0 6.838-2.615 6.838-7.616.005-5-3.435-7.617-6.836-7.617h-.002zm3.062 7.617c0 2.546-1.567 4.323-3.814 4.323-2.22 0-3.895-1.858-3.895-4.323 0-2.465 1.675-4.322 3.895-4.322 2.209 0 3.814 1.817 3.814 4.322zm12.591-7.617c-4.376 0-7.804 3.37-7.804 7.672 0 4.256 3.406 7.589 7.751 7.589 4.391 0 7.83-3.358 7.83-7.644 0-4.27-3.416-7.616-7.777-7.616zm0 11.966c-2.327 0-4.082-1.871-4.082-4.35 0-2.49 1.695-4.296 4.03-4.296 2.342 0 4.107 1.87 4.107 4.35 0 2.49-1.705 4.296-4.055 4.296zm17.12-11.669h-3.573v-3.653a.237.237 0 00-.236-.237h-3.248a.239.239 0 00-.238.237v3.653h-1.56a.237.237 0 00-.235.238v2.79c0 .131.105.239.236.239h1.56v7.22c0 2.917 1.451 4.396 4.318 4.396 1.163 0 2.129-.24 3.039-.757.075-.04.12-.12.12-.206v-2.658a.235.235 0 00-.113-.2.23.23 0 00-.23-.01 4.102 4.102 0 01-1.906.459c-1.041 0-1.507-.474-1.507-1.533v-6.71h3.573a.237.237 0 00.236-.238v-2.79a.23.23 0 00-.233-.238l-.003-.002zm12.449.015v-.45c0-1.319.506-1.908 1.64-1.908.677 0 1.221.135 1.83.338a.234.234 0 00.213-.033.235.235 0 00.098-.193v-2.736a.235.235 0 00-.168-.228 8.893 8.893 0 00-2.698-.388c-2.997 0-4.584 1.689-4.584 4.882v.687h-1.56a.24.24 0 00-.238.238v2.805c0 .13.108.238.238.238h1.56v11.135c0 .133.108.238.238.238h3.245a.236.236 0 00.238-.238V22.453h3.032l4.644 11.135c-.526 1.169-1.045 1.402-1.753 1.402-.571 0-1.176-.17-1.79-.51a.258.258 0 00-.188-.017.239.239 0 00-.141.128l-1.1 2.415a.237.237 0 00.102.309c1.149.621 2.185.887 3.466.887 2.397 0 3.724-1.118 4.89-4.122l5.632-14.554a.23.23 0 00-.025-.221.23.23 0 00-.193-.104h-3.38a.238.238 0 00-.226.16l-3.463 9.889-3.792-9.896a.237.237 0 00-.22-.153h-5.547zm-7.218-.015h-3.247a.238.238 0 00-.238.238v14.164c0 .133.107.238.238.238h3.247a.238.238 0 00.239-.238V19.425a.238.238 0 00-.239-.238zm-1.605-6.45a2.328 2.328 0 10-.002 4.656 2.328 2.328 0 00.002-4.655zm28.443 11.004a2.277 2.277 0 01-2.285-2.285 2.298 2.298 0 012.298-2.296 2.276 2.276 0 012.284 2.283 2.298 2.298 0 01-2.297 2.298zm.013-4.354c-1.172 0-2.057.93-2.057 2.07 0 1.138.88 2.056 2.044 2.056 1.171 0 2.056-.93 2.056-2.07 0-1.138-.88-2.056-2.043-2.056zm.506 2.291l.647.905h-.547l-.581-.83h-.499v.83h-.457v-2.398h1.068c.56 0 .926.285.926.765.002.393-.226.633-.554.728h-.003zm-.386-1.082h-.594v.759h.594c.296 0 .474-.145.474-.38 0-.247-.178-.379-.474-.379z" fill="#272D38"/></g><defs><clipPath id="clip0_61_52"><path fill="#fff" d="M0 0h140v48H0z"/></clipPath></defs></svg>