<svg width="98" height="48" fill="none" xmlns="http://www.w3.org/2000/svg"><path fill-rule="evenodd" clip-rule="evenodd" d="M79.707 20.597c.375.646.497 1.38.537 2.206l.053 1.1v7.698l.055 1.102c.108 1.799 1.435 3.13 3.249 3.243l1.096.054V23.904l.054-1.1c.045-.817.166-1.566.546-2.216a4.395 4.395 0 017.612.014c.374.645.49 1.394.536 2.201l.054 1.098v7.7l.054 1.102c.113 1.808 1.43 3.139 3.25 3.243l1.095.054V22.803a8.8 8.8 0 00-12.42-8.023 8.778 8.778 0 00-2.978 2.203 8.79 8.79 0 00-6.6-2.982 8.71 8.71 0 00-4.928 1.512c-.857-.956-2.774-1.512-3.875-1.512V36l1.1-.054c1.842-.122 3.172-1.416 3.244-3.243L71.5 31.6v-7.697l.054-1.1c.046-.831.162-1.561.537-2.211A4.408 4.408 0 0175.9 18.4a4.4 4.4 0 013.808 2.196zM4.4 35.947L5.5 36h16.499l-.054-1.097c-.15-1.809-1.43-3.13-3.245-3.248l-1.1-.054H7.7l13.197-13.202-.054-1.096c-.086-1.827-1.42-3.147-3.245-3.248l-1.1-.05L0 14.002l.054 1.1c.145 1.792 1.444 3.141 3.243 3.245l1.102.055h9.898L1.101 31.6l.054 1.102c.109 1.813 1.417 3.126 3.244 3.243zM62.78 17.22A10.999 10.999 0 0155 35.997a11.007 11.007 0 01-7.78-3.22c-4.295-4.296-4.295-11.261 0-15.557A10.994 10.994 0 0154.992 14a11.002 11.002 0 017.787 3.222zm-3.113 3.115a6.603 6.603 0 010 9.335 6.603 6.603 0 01-9.334 0 6.603 6.603 0 010-9.335 6.603 6.603 0 019.334 0zM31.906 14a10.992 10.992 0 017.773 3.222c4.297 4.295 4.297 11.261 0 15.556a11.007 11.007 0 01-15.56 0c-4.295-4.296-4.295-11.261 0-15.557A10.993 10.993 0 0131.892 14h.014zm4.66 6.334a6.603 6.603 0 010 9.336 6.603 6.603 0 01-9.334 0 6.603 6.603 0 010-9.335 6.603 6.603 0 019.335 0v-.001z" fill="#272D38"/></svg>